<svg width="17" height="16" viewBox="0 0 17 16" version="1.1" xmlns="http://www.w3.org/2000/svg" xmlns:xlink="http://www.w3.org/1999/xlink">
<title>048-add</title>
<desc>Created using Figma</desc>
<g id="Canvas" transform="translate(-607 -1532)">
<g id="048-add">
<g id="Shape">
<use xlink:href="#path0_fill" transform="translate(607.587 1532)" fill="#0094CC"/>
</g>
<g id="Shape">
<use xlink:href="#path1_fill" transform="translate(614.941 1536.41)" fill="#0094CC"/>
</g>
<g id="Shape">
<use xlink:href="#path2_fill" transform="translate(611.999 1539.35)" fill="#0094CC"/>
</g>
</g>
</g>
<defs>
<path id="path0_fill" fill-rule="evenodd" d="M 8 0C 10.1369 0 12.1459 0.832153 13.6569 2.34314C 15.1678 3.85413 16 5.86316 16 8C 16 10.1368 15.1678 12.1459 13.6569 13.6569C 12.1459 15.1678 10.1369 16 8 16C 5.8631 16 3.85413 15.1678 2.34314 13.6569C 0.832153 12.1459 0 10.1368 0 8C 0 5.86316 0.832153 3.85413 2.34314 2.34314C 3.85413 0.832153 5.8631 0 8 0ZM 1.2926 8C 1.2926 11.6984 4.30151 14.7074 8 14.7074C 11.6984 14.7074 14.7073 11.6984 14.7073 8C 14.7073 4.30151 11.6984 1.2926 8 1.2926C 4.30151 1.2926 1.2926 4.30151 1.2926 8Z"/>
<path id="path1_fill" d="M 0.646312 0C 0.289375 0 0 0.289375 0 0.646312L 0 6.52925C 0 6.88622 0.289375 7.17556 0.646312 7.17556C 1.00328 7.17556 1.29262 6.88622 1.29262 6.52925L 1.29262 0.646312C 1.29262 0.289375 1.00328 0 0.646312 0Z"/>
<path id="path2_fill" d="M 6.52925 0L 0.646312 0C 0.289375 0 0 0.289375 0 0.646312C 0 1.00328 0.289375 1.29262 0.646312 1.29262L 6.52925 1.29262C 6.88622 1.29262 7.17556 1.00328 7.17556 0.646312C 7.17556 0.289375 6.88622 0 6.52925 0Z"/>
</defs>
</svg>
