<svg width="16" height="17" viewBox="0 0 16 17" version="1.1" xmlns="http://www.w3.org/2000/svg" xmlns:xlink="http://www.w3.org/1999/xlink">
<title>047-add-1</title>
<desc>Created using Figma</desc>
<g id="Canvas" transform="translate(-351 -1254)">
<g id="047-add-1">
<g id="Shape">
<use xlink:href="#path0_fill" transform="translate(351 1254.79)" fill="#C7CBCB"/>
</g>
<g id="Shape">
<use xlink:href="#path1_fill" transform="translate(358.354 1258.87)" fill="#C7CBCB"/>
</g>
<g id="Shape">
<use xlink:href="#path2_fill" transform="translate(355.085 1262.14)" fill="#C7CBCB"/>
</g>
</g>
</g>
<defs>
<path id="path0_fill" fill-rule="evenodd" d="M 2.28046 0L 13.7196 0C 14.977 0 16 1.02307 16 2.28052L 16 13.7196C 16 14.9771 14.977 16 13.7195 16L 2.28046 16C 1.02304 16 0 14.9771 0 13.7195L 0 2.28052C 0 1.02307 1.02304 0 2.28046 0ZM 13.7196 14.7074C 14.2642 14.7074 14.7074 14.2642 14.7074 13.7195L 14.7074 2.2804C 14.7074 1.73572 14.2642 1.2926 13.7195 1.2926L 2.28049 1.2926C 1.73578 1.2926 1.29263 1.73572 1.29263 2.2804L 1.29263 13.7195C 1.29263 14.2642 1.73578 14.7074 2.28049 14.7074L 13.7196 14.7074Z"/>
<path id="path1_fill" d="M 0.646312 0C 0.289375 0 0 0.289375 0 0.646312L 0 7.18291C 0 7.53988 0.289375 7.82922 0.646312 7.82922C 1.00328 7.82922 1.29262 7.53988 1.29262 7.18291L 1.29262 0.646312C 1.29262 0.289375 1.00328 0 0.646312 0Z"/>
<path id="path2_fill" d="M 7.18291 0L 0.646312 0C 0.289375 0 0 0.289375 0 0.646312C 0 1.00328 0.289375 1.29262 0.646312 1.29262L 7.18291 1.29262C 7.53988 1.29262 7.82922 1.00328 7.82922 0.646312C 7.82922 0.289375 7.53988 0 7.18291 0Z"/>
</defs>
</svg>
