<svg width="26" height="25" viewBox="0 0 26 25" version="1.1" xmlns="http://www.w3.org/2000/svg" xmlns:xlink="http://www.w3.org/1999/xlink">
<title>118-check</title>
<desc>Created using Figma</desc>
<g id="Canvas" transform="translate(-12001 -391)">
<g id="118-check">
<g id="Shape">
<use xlink:href="#path0_fill" transform="translate(12001 391.067)" fill="#FFFFFF"/>
</g>
<g id="Shape">
<use xlink:href="#path1_fill" transform="translate(12008.7 392.173)" fill="#FFFFFF"/>
</g>
</g>
</g>
<defs>
<path id="path0_fill" d="M 23.0199 9.98534C 22.4591 9.98534 22.0045 10.4399 22.0045 11.0007L 22.0045 12.0233C 22.003 14.6909 20.9627 17.1983 19.0754 19.0834C 17.1894 20.9672 14.6832 22.0044 12.0178 22.0044C 12.0158 22.0044 12.0138 22.0044 12.0119 22.0044C 6.50507 22.0013 2.02753 17.5187 2.03067 12.0118C 2.03219 9.34429 3.07246 6.83693 4.95988 4.95168C 6.84587 3.0679 9.3521 2.03067 12.0175 2.03067C 12.0194 2.03067 12.0214 2.03067 12.0234 2.03067C 13.431 2.03145 14.7966 2.32238 16.0823 2.89524C 16.5947 3.12352 17.1947 2.89322 17.423 2.38104C 17.6512 1.86886 17.4211 1.26865 16.9088 1.04037C 15.3616 0.350963 13.7183 0.00093276 12.0245 0C 12.0219 0 12.02 0 12.0174 0C 8.81026 0 5.79411 1.24833 3.52475 3.51503C 1.25363 5.7835 0.0018675 8.80069 1.97966e-06 12.0108C -0.00181445 15.2207 1.24641 18.2393 3.51498 20.5105C 5.78355 22.7816 8.80069 24.0333 12.0107 24.0352C 12.0132 24.0352 12.0152 24.0352 12.0178 24.0352C 15.2249 24.0352 18.2411 22.7869 20.5105 20.5202C 22.7816 18.2517 24.0333 15.2345 24.0352 12.0239L 24.0352 11.0007C 24.0352 10.4399 23.5807 9.98534 23.0199 9.98534Z"/>
<path id="path1_fill" d="M 17.1364 0.297354C 16.7399 -0.099118 16.097 -0.099118 15.7005 0.297354L 4.31597 11.6818L 1.73325 9.09912C 1.33678 8.7026 0.693863 8.7026 0.297391 9.09912C -0.0991303 9.49564 -0.0991303 10.1385 0.297391 10.535L 3.59808 13.8357C 3.79632 14.034 4.05622 14.1331 4.31606 14.1331C 4.57591 14.1331 4.83576 14.034 5.03404 13.8357L 17.1364 1.73326C 17.5329 1.33674 17.5329 0.693875 17.1364 0.297354Z"/>
</defs>
</svg>
