<svg width="16" height="14" viewBox="0 0 16 14" version="1.1" xmlns="http://www.w3.org/2000/svg" xmlns:xlink="http://www.w3.org/1999/xlink">
<title>Shape</title>
<desc>Created using Figma</desc>
<g id="Canvas" transform="translate(-1549 -2238)">
<g id="Shape">
<use xlink:href="#path0_fill" transform="matrix(6.12323e-17 -1 1 6.12323e-17 1549.7 2251.42)" fill="#FFFFFF"/>
</g>
</g>
<defs>
<path id="path0_fill" d="M 12.7124 7.89626L 0.424706 15.2628C 0.381505 15.2881 0.332173 15.3016 0.282021 15.3016C 0.180398 15.3016 0.113457 15.2499 0.0826243 15.219C 0.0517917 15.1882 3.56447e-05 15.1213 3.56447e-05 15.0198L 3.56447e-05 0.281851C 3.56447e-05 0.231342 0.0136876 0.181689 0.0394586 0.138203C 0.091286 0.0507665 0.169918 0.0196131 0.212193 0.00881275C 0.254218 -0.0019163 0.337733 -0.0123245 0.424778 0.0388612L 12.7124 7.41556C 12.7505 7.43894 12.7829 7.47149 12.8061 7.50966C 12.8865 7.64219 12.8444 7.81532 12.7124 7.89626Z"/>
</defs>
</svg>
