<svg width="33" height="30" viewBox="0 0 33 30" version="1.1" xmlns="http://www.w3.org/2000/svg" xmlns:xlink="http://www.w3.org/1999/xlink">
<title>129-bar-chart</title>
<desc>Created using Figma</desc>
<g id="Canvas" transform="translate(-4554 -1310)">
<g id="129-bar-chart">
<g id="Shape">
<use xlink:href="#path0_fill" transform="translate(4566.75 1310.22)" fill="#FFFFFF"/>
</g>
<g id="Shape">
<use xlink:href="#path1_fill" transform="translate(4578.52 1317.58)" fill="#FFFFFF"/>
</g>
<g id="Shape">
<use xlink:href="#path2_fill" transform="translate(4554.98 1324.93)" fill="#FFFFFF"/>
</g>
</g>
</g>
<defs>
<path id="path0_fill" fill-rule="evenodd" d="M 2.76318 0L 5.70508 0C 7.22852 0 8.46826 1.23975 8.46826 2.76343L 8.46826 26.2952C 8.46826 27.8188 7.22852 29.0586 5.70508 29.0586L 2.76318 29.0586C 1.23975 29.0586 0 27.8188 0 26.2952L 0 2.76343C 0 1.23975 1.23975 0 2.76318 0ZM 5.70508 26.4733C 5.80322 26.4733 5.8833 26.3933 5.8833 26.295L 5.8833 2.76331C 5.8833 2.66516 5.80322 2.58521 5.70508 2.58521L 2.76367 2.58521C 2.66553 2.58521 2.58545 2.66516 2.58545 2.76331L 2.58545 26.295C 2.58545 26.3933 2.66553 26.4733 2.76367 26.4733L 5.70508 26.4733Z"/>
<path id="path1_fill" fill-rule="evenodd" d="M 2.76367 0L 5.70508 0C 7.22852 0 8.46826 1.23962 8.46826 2.76343L 8.46826 18.9415C 8.46826 20.4652 7.22852 21.7048 5.70508 21.7048L 2.76367 21.7048C 1.23975 21.7048 0 20.4652 0 18.9414L 0 2.76343C 0 1.23975 1.23975 0 2.76367 0ZM 5.70508 19.1196C 5.80322 19.1196 5.8833 19.0397 5.8833 18.9414L 5.8833 2.76331C 5.8833 2.66516 5.80322 2.58521 5.70508 2.58521L 2.76367 2.58521C 2.66553 2.58521 2.58545 2.66516 2.58545 2.76331L 2.58545 18.9414C 2.58545 19.0397 2.66553 19.1196 2.76367 19.1196L 5.70508 19.1196Z"/>
<path id="path2_fill" fill-rule="evenodd" d="M 2.76318 0L 5.70508 0C 7.22852 0 8.46826 1.23962 8.46826 2.76343L 8.46826 11.5879C 8.46826 13.1116 7.22852 14.3512 5.70508 14.3512L 2.76318 14.3512C 1.23975 14.3512 0 13.1116 0 11.5879L 0 2.76343C 0 1.23975 1.23975 0 2.76318 0ZM 5.70508 11.7659C 5.80322 11.7659 5.8833 11.686 5.8833 11.5878L 5.8833 2.76343C 5.8833 2.66516 5.80322 2.58521 5.70508 2.58521L 2.76367 2.58521C 2.73926 2.58521 2.71631 2.59009 2.69531 2.59888C 2.63086 2.62585 2.58545 2.68945 2.58545 2.76343L 2.58545 11.5878C 2.58545 11.6859 2.66553 11.7659 2.76367 11.7659L 5.70508 11.7659Z"/>
</defs>
</svg>
