<svg width="17" height="16" viewBox="0 0 17 16" version="1.1" xmlns="http://www.w3.org/2000/svg" xmlns:xlink="http://www.w3.org/1999/xlink">
<title>101-edit</title>
<desc>Created using Figma</desc>
<g id="Canvas" transform="translate(-1949 -1727)">
<g id="101-edit">
<g id="Shape">
<use xlink:href="#path0_fill" transform="translate(1949.5 1728.47)"/>
</g>
<g id="Shape">
<use xlink:href="#path1_fill" transform="translate(1953.91 1727)"/>
</g>
</g>
</g>
<defs>
<path id="path0_fill" d="M 13.883 7.839C 13.526 7.839 13.2367 8.12834 13.2367 8.48531L 13.2367 12.4122C 13.2367 12.8668 12.8668 13.2366 12.4122 13.2366L 2.11706 13.2366C 1.66247 13.2366 1.29266 12.8667 1.29266 12.4122L 1.29266 2.11703C 1.29266 1.66244 1.6625 1.29262 2.11706 1.29262L 6.04394 1.29262C 6.40088 1.29262 6.69025 1.00325 6.69025 0.646312C 6.69025 0.289375 6.40088 0 6.04394 0L 2.11706 0C 0.949719 0 0 0.949719 0 2.11706L 0 12.4122C 3.125e-05 13.5795 0.94975 14.5292 2.11706 14.5292L 12.4122 14.5292C 13.5796 14.5292 14.5293 13.5795 14.5293 12.4122L 14.5293 8.48528C 14.5293 8.12834 14.2399 7.839 13.883 7.839Z"/>
<path id="path1_fill" fill-rule="evenodd" d="M 8.45703 0.189331L 11.3984 3.13074C 11.4736 3.20593 11.5283 3.29761 11.5591 3.39734C 11.5779 3.4585 11.5878 3.52258 11.5878 3.58777C 11.5878 3.66455 11.5741 3.73999 11.5481 3.81067C 11.5161 3.89783 11.4653 3.97791 11.3984 4.0448L 4.0448 11.3986C 3.99402 11.4492 3.93567 11.4907 3.87244 11.5217C 3.78467 11.5648 3.6875 11.5878 3.58777 11.5878L 0.646362 11.5878C 0.289429 11.5878 0 11.2985 0 10.9415L 0 8C 0 7.82861 0.0681152 7.66418 0.189331 7.54297L 7.54297 0.189331C 7.79541 -0.0631104 8.20459 -0.0631104 8.45703 0.189331ZM 1.2926 10.2952L 3.32007 10.2952L 10.0273 3.58789L 8 1.56042L 1.2926 8.26782L 1.2926 10.2952Z"/>
</defs>
</svg>
