<svg width="16" height="16" viewBox="0 0 16 16" version="1.1" xmlns="http://www.w3.org/2000/svg" xmlns:xlink="http://www.w3.org/1999/xlink">
<title>118-check</title>
<desc>Created using Figma</desc>
<g id="Canvas" transform="translate(-12009 -449)">
<g id="118-check">
<g id="Shape">
<use xlink:href="#path0_fill" transform="translate(12009 449.435)" fill="#FF7E00"/>
</g>
<g id="Shape">
<use xlink:href="#path1_fill" transform="translate(12013.8 450.116)" fill="#FF7E00"/>
</g>
</g>
</g>
<defs>
<path id="path0_fill" d="M 14.1661 6.14482C 13.821 6.14482 13.5413 6.42458 13.5413 6.76965L 13.5413 7.39897C 13.5403 9.04056 12.9002 10.5836 11.7387 11.7436C 10.5781 12.9029 9.03582 13.5412 7.39555 13.5412C 7.39435 13.5412 7.39314 13.5412 7.39193 13.5412C 4.00312 13.5393 1.24771 10.7807 1.24964 7.3919C 1.25058 5.75033 1.89075 4.20734 3.05223 3.04719C 4.21284 1.88794 5.75514 1.24964 7.39537 1.24964C 7.39658 1.24964 7.39779 1.24964 7.399 1.24964C 8.2652 1.25012 9.10561 1.42915 9.89683 1.78168C 10.2121 1.92216 10.5814 1.78045 10.7219 1.46526C 10.8623 1.15007 10.7207 0.780709 10.4054 0.640228C 9.45331 0.215977 8.44206 0.000574006 7.39969 0C 7.39812 0 7.39691 0 7.39534 0C 5.4217 0 3.56561 0.768201 2.16908 2.1631C 0.771465 3.55908 0.00114923 5.41581 1.21825e-06 7.39123C -0.00111658 9.3666 0.767024 11.2242 2.16307 12.6218C 3.55911 14.0194 5.41581 14.7897 7.3912 14.7909C 7.39275 14.7909 7.39398 14.7909 7.39555 14.7909C 9.3692 14.7909 11.2253 14.0227 12.6218 12.6278C 14.0194 11.2318 14.7897 9.37506 14.7909 7.39933L 14.7909 6.76968C 14.7909 6.42458 14.5112 6.14482 14.1661 6.14482Z"/>
<path id="path1_fill" d="M 10.5455 0.182987C 10.3015 -0.0609957 9.90586 -0.0609957 9.66184 0.182987L 2.65598 7.18882L 1.06662 5.59946C 0.822634 5.35545 0.426992 5.35545 0.18301 5.59946C -0.0610032 5.84347 -0.0610032 6.23908 0.18301 6.4831L 2.21421 8.51429C 2.3362 8.63631 2.49613 8.69731 2.65604 8.69731C 2.81594 8.69731 2.97585 8.63631 3.09787 8.51429L 10.5455 1.06662C 10.7895 0.822611 10.7895 0.427 10.5455 0.182987Z"/>
</defs>
</svg>
