<svg width="73" height="73" viewBox="0 0 73 73" version="1.1" xmlns="http://www.w3.org/2000/svg" xmlns:xlink="http://www.w3.org/1999/xlink">
<title>Group 2</title>
<desc>Created using Figma</desc>
<g id="Canvas" transform="translate(-395 -485)">
<g id="Group 2">
<g id="Group">
<g id="Path 2">
<use xlink:href="#path0_stroke" transform="translate(430.5 499.164)" fill="#FFFFFF"/>
</g>
<g id="Path 2">
<use xlink:href="#path1_stroke" transform="translate(409.271 521.393)" fill="#FFFFFF"/>
</g>
</g>
<g id="Oval">
<use xlink:href="#path2_stroke" transform="translate(396 486)" fill="#FFFFFF"/>
</g>
</g>
</g>
<defs>
<path id="path0_stroke" d="M 0 0L 0 44.4579L 2 44.4579L 2 0L 0 0Z"/>
<path id="path1_stroke" d="M 44.4579 -1L 0 -1L 0 1L 44.4579 1L 44.4579 -1Z"/>
<path id="path2_stroke" d="M 35.5 72C 55.6584 72 72 55.6584 72 35.5L 70 35.5C 70 54.5538 54.5538 70 35.5 70L 35.5 72ZM 72 35.5C 72 15.3416 55.6584 -1 35.5 -1L 35.5 1C 54.5538 1 70 16.4462 70 35.5L 72 35.5ZM 35.5 -1C 15.3416 -1 -1 15.3416 -1 35.5L 1 35.5C 1 16.4462 16.4462 1 35.5 1L 35.5 -1ZM -1 35.5C -1 55.6584 15.3416 72 35.5 72L 35.5 70C 16.4462 70 1 54.5538 1 35.5L -1 35.5Z"/>
</defs>
</svg>
