<svg width="25" height="24" viewBox="0 0 25 24" version="1.1" xmlns="http://www.w3.org/2000/svg" xmlns:xlink="http://www.w3.org/1999/xlink">
<title>101-edit</title>
<desc>Created using Figma</desc>
<g id="Canvas" transform="translate(-1755 -287)">
<g id="101-edit">
<g id="Shape">
<use xlink:href="#path0_fill" transform="translate(1755.89 289.206)" fill="#6D6E6E"/>
</g>
<g id="Shape">
<use xlink:href="#path1_fill" transform="translate(1762.51 287)" fill="#6D6E6E"/>
</g>
</g>
</g>
<defs>
<path id="path0_fill" d="M 20.8245 11.7585C 20.289 11.7585 19.855 12.1925 19.855 12.728L 19.855 18.6183C 19.855 19.3002 19.3002 19.8549 18.6184 19.8549L 3.17559 19.8549C 2.4937 19.8549 1.93898 19.3001 1.93898 18.6183L 1.93898 3.17555C 1.93898 2.49366 2.49375 1.93894 3.17559 1.93894L 9.06591 1.93894C 9.60131 1.93894 10.0354 1.50487 10.0354 0.969469C 10.0354 0.434063 9.60131 0 9.06591 0L 3.17559 0C 1.42458 0 0 1.42458 0 3.17559L 0 18.6183C 4.6875e-05 20.3692 1.42463 21.7938 3.17559 21.7938L 18.6183 21.7938C 20.3693 21.7938 21.7939 20.3693 21.7939 18.6182L 21.7939 12.7279C 21.7939 12.1925 21.3599 11.7585 20.8245 11.7585Z"/>
<path id="path1_fill" fill-rule="evenodd" d="M 12.6855 0.283966L 17.0977 4.69617C 17.2795 4.87799 17.3817 5.12454 17.3817 5.38165C 17.3817 5.63876 17.2795 5.88538 17.0977 6.0672L 6.06714 17.0978C 5.88538 17.2796 5.63879 17.3817 5.38171 17.3817L 0.969482 17.3817C 0.434082 17.3817 0 16.9477 0 16.4122L 0 12C 0 11.7429 0.102173 11.4963 0.283936 11.3145L 11.3145 0.283966C 11.6931 -0.0946655 12.3069 -0.0946655 12.6855 0.283966ZM 1.93896 15.4427L 4.9801 15.4427L 15.0411 5.38171L 12 2.34055L 1.93896 12.4016L 1.93896 15.4427Z"/>
</defs>
</svg>
