<svg width="17" height="17" viewBox="0 0 17 17" version="1.1" xmlns="http://www.w3.org/2000/svg" xmlns:xlink="http://www.w3.org/1999/xlink">
<title>050-pie-chart</title>
<desc>Created using Figma</desc>
<g id="Canvas" transform="translate(-552 -1320)">
<g id="050-pie-chart">
<g id="Shape">
<use xlink:href="#path0_fill" transform="translate(552.298 1320.55)" fill="#C7CBCB"/>
</g>
<g id="Shape">
<use xlink:href="#path1_fill" transform="translate(559.652 1320.55)" fill="#C7CBCB"/>
</g>
</g>
</g>
<defs>
<path id="path0_fill" fill-rule="evenodd" d="M 8 0C 10.1369 0 12.1459 0.832153 13.6569 2.34314C 15.1678 3.85413 16 5.86316 16 8C 16 10.1368 15.1678 12.1459 13.6569 13.6569C 12.1459 15.1678 10.1369 16 8 16C 5.8631 16 3.85413 15.1678 2.34314 13.6569C 0.832153 12.1459 0 10.1368 0 8C 0 5.86316 0.832153 3.85413 2.34314 2.34314C 3.85413 0.832153 5.8631 0 8 0ZM 1.2926 8C 1.2926 11.6984 4.30151 14.7074 8 14.7074C 11.6984 14.7074 14.7073 11.6984 14.7073 8C 14.7073 4.30151 11.6984 1.2926 8 1.2926C 4.30151 1.2926 1.2926 4.30151 1.2926 8Z"/>
<path id="path1_fill" d="M 8 7.35369L 1.29262 7.35369L 1.29262 0.646312C 1.29262 0.289375 1.00328 0 0.646312 0C 0.289375 0 0 0.289375 0 0.646312L 0 8C 0 8.35697 0.289375 8.64631 0.646312 8.64631L 8 8.64631C 8.35697 8.64631 8.64631 8.35697 8.64631 8C 8.64631 7.64306 8.35697 7.35369 8 7.35369Z"/>
</defs>
</svg>
