<svg width="32" height="33" viewBox="0 0 32 33" version="1.1" xmlns="http://www.w3.org/2000/svg" xmlns:xlink="http://www.w3.org/1999/xlink">
<title>006-close</title>
<desc>Created using Figma</desc>
<g id="Canvas" transform="translate(-1247 -2694)">
<g id="006-close">
<g id="Shape">
<use xlink:href="#path0_fill" transform="translate(1247 2694.5)" fill="#C7CBCB"/>
</g>
<g id="Shape">
<use xlink:href="#path1_fill" transform="translate(1257.3 2704.79)" fill="#C7CBCB"/>
</g>
<g id="Shape">
<use xlink:href="#path2_fill" transform="translate(1257.3 2704.79)" fill="#C7CBCB"/>
</g>
</g>
</g>
<defs>
<path id="path0_fill" fill-rule="evenodd" d="M 16 0C 20.2738 0 24.2917 1.66431 27.3137 4.68628C 30.3357 7.70825 32 11.7263 32 16C 32 20.2737 30.3357 24.2917 27.3137 27.3137C 24.2917 30.3357 20.2738 32 16 32C 11.7262 32 7.70825 30.3357 4.68628 27.3137C 1.66431 24.2917 0 20.2737 0 16C 0 11.7263 1.66431 7.70825 4.68628 4.68628C 7.70825 1.66431 11.7262 0 16 0ZM 2.58521 16C 2.58521 23.3967 8.60303 29.4148 16 29.4148C 23.3969 29.4148 29.4147 23.3967 29.4147 16C 29.4147 8.60303 23.3969 2.58521 16 2.58521C 8.60303 2.58521 2.58521 8.60303 2.58521 16Z"/>
<path id="path1_fill" d="M 11.0311 0.378609C 10.5263 -0.126203 9.70786 -0.126203 9.20305 0.378609L 0.378609 9.20298C -0.126203 9.7078 -0.126203 10.5262 0.378609 11.031C 0.630984 11.2835 0.961859 11.4097 1.29267 11.4097C 1.62348 11.4097 1.95436 11.2835 2.20673 11.031L 11.0311 2.20661C 11.5359 1.70186 11.5359 0.883422 11.0311 0.378609Z"/>
<path id="path2_fill" d="M 11.031 9.20298L 2.20661 0.378609C 1.70186 -0.126203 0.883359 -0.126203 0.378609 0.378609C -0.126203 0.883359 -0.126203 1.7018 0.378609 2.20661L 9.20298 11.031C 9.45536 11.2835 9.78623 11.4097 10.117 11.4097C 10.4479 11.4097 10.7787 11.2835 11.0311 11.031C 11.5358 10.5262 11.5358 9.7078 11.031 9.20298Z"/>
</defs>
</svg>
