<svg width="12" height="10" viewBox="0 0 12 10" version="1.1" xmlns="http://www.w3.org/2000/svg" xmlns:xlink="http://www.w3.org/1999/xlink">
<title>134-left-arrow copy</title>
<desc>Created using Figma</desc>
<g id="Canvas" transform="translate(-2946 -1224)">
<g id="134-left-arrow copy">
<g id="Shape">
<use xlink:href="#path0_fill" transform="matrix(-1 -1.22465e-16 1.22465e-16 -1 2958 1229.35)" fill="#2F3230"/>
</g>
<g id="Shape">
<use xlink:href="#path1_fill" transform="matrix(-1 -1.22465e-16 1.22465e-16 -1 2958 1233.42)" fill="#2F3230"/>
</g>
</g>
</g>
<defs>
<path id="path0_fill" d="M 11.3224 0L 0.476614 0C 0.213396 0 0 0.213396 0 0.476614C 0 0.739856 0.213396 0.953228 0.476614 0.953228L 11.3224 0.953228C 11.5856 0.953228 11.799 0.739856 11.799 0.476614C 11.799 0.213396 11.5856 0 11.3224 0Z"/>
<path id="path1_fill" d="M 1.15067 4.54376L 4.88078 0.813623C 5.06692 0.627489 5.06692 0.325716 4.88078 0.139583C 4.69465 -0.0465276 4.39288 -0.0465276 4.20674 0.139583L 0.1396 4.20673C -0.0465334 4.39286 -0.0465334 4.69463 0.1396 4.88077L 4.20674 8.94791C 4.2998 9.04099 4.4218 9.08752 4.54378 9.08752C 4.66575 9.08752 4.78775 9.04099 4.88081 8.94791C 5.06694 8.76178 5.06694 8.46001 4.88081 8.27387L 1.15067 4.54376Z"/>
</defs>
</svg>
