<svg width="17" height="17" viewBox="0 0 17 17" version="1.1" xmlns="http://www.w3.org/2000/svg" xmlns:xlink="http://www.w3.org/1999/xlink">
<title>101-edit</title>
<desc>Created using Figma</desc>
<g id="Canvas" transform="translate(-344 -2610)">
<g id="101-edit">
<g id="Shape">
<use xlink:href="#path0_fill" transform="translate(344.133 2611.91)" fill="#FFFFFF"/>
</g>
<g id="Shape">
<use xlink:href="#path1_fill" transform="translate(348.545 2610.44)" fill="#FFFFFF"/>
</g>
</g>
</g>
<defs>
<path id="path0_fill" d="M 13.883 7.839C 13.526 7.839 13.2367 8.12834 13.2367 8.48531L 13.2367 12.4122C 13.2367 12.8668 12.8668 13.2366 12.4122 13.2366L 2.11706 13.2366C 1.66247 13.2366 1.29266 12.8667 1.29266 12.4122L 1.29266 2.11703C 1.29266 1.66244 1.6625 1.29262 2.11706 1.29262L 6.04394 1.29262C 6.40088 1.29262 6.69025 1.00325 6.69025 0.646312C 6.69025 0.289375 6.40088 0 6.04394 0L 2.11706 0C 0.949719 0 0 0.949719 0 2.11706L 0 12.4122C 3.125e-05 13.5795 0.94975 14.5292 2.11706 14.5292L 12.4122 14.5292C 13.5796 14.5292 14.5293 13.5795 14.5293 12.4122L 14.5293 8.48528C 14.5293 8.12834 14.2399 7.839 13.883 7.839Z"/>
<path id="path1_fill" fill-rule="evenodd" d="M 8.457 0.189209L 11.3985 3.13086C 11.5197 3.25195 11.5878 3.41626 11.5878 3.58789C 11.5878 3.69531 11.5611 3.7998 11.5114 3.89282C 11.4817 3.94824 11.4438 3.99951 11.3985 4.04492L 4.04477 11.3984C 3.98792 11.4553 3.92154 11.5005 3.84937 11.5325C 3.76776 11.5686 3.67877 11.5879 3.58777 11.5879L 0.646301 11.5879C 0.289368 11.5879 0 11.2983 0 10.9414L 0 8C 0 7.82861 0.0681152 7.66431 0.189301 7.54297L 7.54297 0.189209C 7.79538 -0.0629883 8.20459 -0.0629883 8.457 0.189209ZM 1.29266 10.2952L 3.3201 10.2952L 10.0274 3.58765L 8 1.5603L 1.29266 8.26758L 1.29266 10.2952Z"/>
</defs>
</svg>
