<svg width="17" height="17" viewBox="0 0 17 17" version="1.1" xmlns="http://www.w3.org/2000/svg" xmlns:xlink="http://www.w3.org/1999/xlink">
<title>116-check-2</title>
<desc>Created using Figma</desc>
<g id="Canvas" transform="translate(-1714 -2982)">
<g id="116-check-2">
<g id="083-info">
<g id="Shape">
<use xlink:href="#path0_fill" transform="matrix(-1 -1.22465e-16 1.22465e-16 -1 1730.02 2999)" fill="#2F3230"/>
</g>
<g id="Shape">
<use xlink:href="#path1_fill" transform="matrix(-1 -1.22465e-16 1.22465e-16 -1 1722.67 2991.64)" fill="#2F3230"/>
</g>
<g id="Shape">
<use xlink:href="#path2_fill" transform="matrix(-1 -1.22465e-16 1.22465e-16 -1 1722.67 2994.58)" fill="#2F3230"/>
</g>
</g>
</g>
</g>
<defs>
<path id="path0_fill" fill-rule="evenodd" d="M 8 0C 10.1368 -2.61688e-16 12.1459 0.832275 13.6569 2.34326C 15.1678 3.854 16 5.86304 16 8C 16 10.137 15.1678 12.1458 13.6569 13.6567C 12.1459 15.1677 10.1368 16 8 16C 5.86316 16 3.85413 15.1677 2.34314 13.6567C 0.832153 12.1458 2.61702e-16 10.137 0 8C -2.61702e-16 5.86304 0.832153 3.854 2.34314 2.34326C 3.85413 0.832275 5.86316 2.61688e-16 8 0ZM 1.2926 8C 1.2926 11.6985 4.30151 14.7075 8 14.7075C 11.6984 14.7075 14.7074 11.6985 14.7074 8C 14.7074 4.30176 11.6984 1.29272 8 1.29272C 4.30151 1.29272 1.2926 4.30176 1.2926 8Z"/>
<path id="path1_fill" d="M 0.646312 0C 0.289375 0 0 0.289375 0 0.646312L 0 3.58778C 0 3.94475 0.289375 4.23409 0.646312 4.23409C 1.00328 4.23409 1.29262 3.94475 1.29262 3.58778L 1.29262 0.646312C 1.29262 0.289375 1.00328 0 0.646312 0Z"/>
<path id="path2_fill" d="M 1.10337 0.189313C 0.983 0.0689375 0.816406 0 0.646344 0C 0.476281 0 0.309687 0.0689375 0.189313 0.189313C 0.0689375 0.309656 0 0.476281 0 0.646344C 0 0.816406 0.0689375 0.983 0.189313 1.10337C 0.309687 1.22372 0.476281 1.29269 0.646344 1.29269C 0.816406 1.29269 0.983 1.22375 1.10337 1.10337C 1.22375 0.983 1.29269 0.816406 1.29269 0.646344C 1.29266 0.476281 1.22369 0.309687 1.10337 0.189313Z"/>
</defs>
</svg>
