<svg width="17" height="16" viewBox="0 0 17 16" version="1.1" xmlns="http://www.w3.org/2000/svg" xmlns:xlink="http://www.w3.org/1999/xlink">
<title>005-close-1</title>
<desc>Created using Figma</desc>
<g id="Canvas" transform="translate(-2664 -2985)">
<g id="005-close-1">
<g id="Shape">
<use xlink:href="#path0_fill" transform="translate(2664.34 2985)" fill="#2F3230"/>
</g>
<g id="Shape">
<use xlink:href="#path1_fill" transform="translate(2669.25 2989.9)" fill="#2F3230"/>
</g>
<g id="Shape">
<use xlink:href="#path2_fill" transform="translate(2669.25 2989.9)" fill="#2F3230"/>
</g>
</g>
</g>
<defs>
<path id="path0_fill" fill-rule="evenodd" d="M 2.28052 0L 13.7195 0C 14.9771 0 16 1.02295 16 2.28052L 16 13.7195C 16 14.9771 14.9771 16 13.7195 16L 2.28052 16C 1.02295 16 0 14.9771 0 13.7195L 0 2.28052C 0 1.02295 1.02295 0 2.28052 0ZM 13.7197 14.7075C 14.2644 14.7075 14.7075 14.2644 14.7075 13.7197L 14.7075 2.28052C 14.7075 1.73584 14.2644 1.29272 13.7197 1.29272L 2.28052 1.29272C 1.73584 1.29272 1.29272 1.73584 1.29272 2.28052L 1.29272 13.7197C 1.29272 14.2644 1.73584 14.7075 2.28052 14.7075L 13.7197 14.7075Z"/>
<path id="path1_fill" d="M 6.0058 5.09175L 1.10334 0.189281C 0.850961 -0.0630938 0.441711 -0.0630938 0.189305 0.189281C -0.0631015 0.441687 -0.0631015 0.850906 0.189305 1.10331L 5.09177 6.00578C 5.21796 6.132 5.3834 6.19509 5.5488 6.19509C 5.71421 6.19509 5.87965 6.132 6.00584 6.00578C 6.25818 5.75341 6.25818 5.34416 6.0058 5.09175Z"/>
<path id="path2_fill" d="M 6.00584 0.189281C 5.75343 -0.0630938 5.34421 -0.0630938 5.0918 0.189281L 0.189305 5.09175C -0.0631015 5.34416 -0.0631015 5.75338 0.189305 6.00578C 0.315492 6.132 0.48093 6.19509 0.646336 6.19509C 0.811742 6.19509 0.977148 6.132 1.10334 6.00578L 6.00584 1.10331C 6.25821 0.850937 6.25821 0.441719 6.00584 0.189281Z"/>
</defs>
</svg>
